GRF
version=1
nRows=37
nColumns=19
inDegrees=no
endheader
time	right_ground_force_vx	right_ground_force_vy	right_ground_force_vz	right_ground_force_px	right_ground_force_py	right_ground_force_pz	right_ground_torque_x	right_ground_torque_y	right_ground_torque_z	left_ground_force_vx	left_ground_force_vy	left_ground_force_vz	left_ground_force_px	left_ground_force_py	left_ground_force_pz	left_ground_torque_x	left_ground_torque_y	left_ground_torque_z
      1.81000000	    -63.49857307	    456.11106898	     16.13848996	     -0.14943904	      0.00000000	     -0.23963154	      0.00000000	      3.51220452	      0.00000000	     -0.00000000	      0.00000000	      0.00000000	      0.28239946	      0.00000000	     -0.34225756	      0.00000000	     -0.00000000	      0.00000000
      1.82000000	    -60.77846052	    459.44359658	     17.12785247	     -0.14596331	      0.00000000	     -0.23896779	      0.00000000	      3.60708226	      0.00000000	     -0.00000000	      0.00000000	      0.00000000	      0.28239946	      0.00000000	     -0.34225756	      0.00000000	     -0.00000000	      0.00000000
      1.83000000	    -57.55592426	    459.55757187	     17.86713523	     -0.14272636	      0.00000000	     -0.23836408	      0.00000000	      3.65507549	      0.00000000	     -0.00000000	      0.00000000	      0.00000000	      0.28239946	      0.00000000	     -0.34225756	      0.00000000	     -0.00000000	      0.00000000
      1.84000000	    -53.96309616	    456.83890842	     18.35538303	     -0.13973046	      0.00000000	     -0.23782673	      0.00000000	      3.65520480	      0.00000000	     -0.00000000	      0.00000000	      0.00000000	      0.28239946	      0.00000000	     -0.34225756	      0.00000000	     -0.00000000	      0.00000000
      1.85000000	    -50.09477308	    451.69767203	     18.60626117	     -0.13698906	      0.00000000	     -0.23735813	      0.00000000	      3.60902507	      0.00000000	     -0.00000000	      0.00000000	      0.00000000	      0.28239946	      0.00000000	     -0.34225756	      0.00000000	     -0.00000000	      0.00000000
      1.86000000	    -46.01399399	    444.55977006	     18.64853515	     -0.13452062	      0.00000000	     -0.23695928	      0.00000000	      3.52180896	      0.00000000	     -0.00000000	      0.00000000	      0.00000000	      0.28239946	      0.00000000	     -0.34225756	      0.00000000	     -0.00000000	      0.00000000
      1.87000000	    -41.76840984	    435.85510658	     18.52409458	     -0.13233913	      0.00000000	     -0.23663150	      0.00000000	      3.40272669	      0.00000000	     -0.00000000	      0.00000000	      0.00000000	      0.28239946	      0.00000000	     -0.34225756	      0.00000000	     -0.00000000	      0.00000000
      1.88000000	    -37.41143782	    426.00051849	     18.28124743	     -0.13044483	      0.00000000	     -0.23637661	      0.00000000	      3.26360157	      0.00000000	     -0.00000000	      0.00000000	      0.00000000	      0.28239946	      0.00000000	     -0.34225756	      0.00000000	     -0.00000000	      0.00000000
      1.89000000	    -33.01839329	    415.38124854	     17.96308839	     -0.12881912	      0.00000000	     -0.23619608	      0.00000000	      3.11636989	      0.00000000	     -0.00000000	      0.00000000	      0.00000000	      0.28239946	      0.00000000	     -0.34225756	      0.00000000	     -0.00000000	      0.00000000
      1.90000000	    -28.68880260	    404.33685677	     17.59473752	     -0.12742588	      0.00000000	     -0.23609059	      0.00000000	      2.97003492	      0.00000000	     -0.00000000	      0.00000000	      0.00000000	      0.28239946	      0.00000000	     -0.34225756	      0.00000000	     -0.00000000	      0.00000000
      1.91000000	    -24.53250590	    393.15625640	     17.17595586	     -0.12621854	      0.00000000	     -0.23606045	      0.00000000	      2.82835776	      0.00000000	     -0.00000000	      0.00000000	      0.00000000	      0.28239946	      0.00000000	     -0.34225756	      0.00000000	     -0.00000000	      0.00000000
      1.92000000	    -20.64561588	    382.08292708	     16.68420161	     -0.12514975	      0.00000000	     -0.23610625	      0.00000000	      2.68940421	      0.00000000	     -0.00000000	      0.00000000	      0.00000000	      0.28239946	      0.00000000	     -0.34225756	      0.00000000	     -0.00000000	      0.00000000
      1.93000000	    -17.08745782	    371.32702002	     16.08781939	     -0.12417959	      0.00000000	     -0.23622863	      0.00000000	      2.54726350	      0.00000000	     -0.00000000	      0.00000000	      0.00000000	      0.28239946	      0.00000000	     -0.34225756	      0.00000000	     -0.00000000	      0.00000000
      1.94000000	    -13.86814313	    361.07819164	     15.36330127	     -0.12327977	      0.00000000	     -0.23642685	      0.00000000	      2.39516050	      0.00000000	     -0.00000000	      0.00000000	      0.00000000	      0.28239946	      0.00000000	     -0.34225756	      0.00000000	     -0.00000000	      0.00000000
      1.95000000	    -10.95018590	    351.51321035	     14.50840178	     -0.12243337	      0.00000000	     -0.23669700	      0.00000000	      2.22848783	      0.00000000	     -0.00000000	      0.00000001	      0.00000000	      0.28239946	      0.00000000	     -0.34225756	      0.00000000	     -0.00000000	      0.00000000
      1.96000000	     -8.26122733	    342.79563772	     13.54549562	     -0.12163135	      0.00000000	     -0.23703126	      0.00000000	      2.04643300	      0.00000000	     -0.00000001	      0.00000005	      0.00000000	      0.28239946	      0.00000000	     -0.34225756	      0.00000000	     -0.00000000	      0.00000000
      1.97000000	     -5.71185623	    335.06935397	     12.51475549	     -0.12086826	      0.00000000	     -0.23741863	      0.00000000	      1.85172021	      0.00000000	     -0.00000008	      0.00000035	      0.00000002	      0.28239946	      0.00000000	     -0.34225756	      0.00000000	     -0.00000002	      0.00000000
      1.98000000	     -3.21279667	    328.45080523	     11.46122056	     -0.12013906	      0.00000000	     -0.23784653	      0.00000000	      1.64894721	      0.00000000	     -0.00000049	      0.00000231	      0.00000013	      0.28239946	      0.00000000	     -0.34225756	      0.00000000	     -0.00000011	      0.00000000
      1.99000000	     -0.68760279	    323.02478788	     10.42164759	     -0.11943839	      0.00000000	     -0.23830234	      0.00000000	      1.44255029	      0.00000000	     -0.00000282	      0.00001371	      0.00000079	      0.28239946	      0.00000000	     -0.34225756	      0.00000000	     -0.00000062	      0.00000000
      2.00000000	      1.92093200	    318.84538766	      9.41609515	     -0.11876202	      0.00000000	     -0.23877443	      0.00000000	      1.23540357	      0.00000000	     -0.00001484	      0.00007406	      0.00000423	      0.28239946	      0.00000000	     -0.34225756	      0.00000000	     -0.00000327	      0.00000000
      2.01000000	      4.65055439	    315.93939414	      8.44650022	     -0.11810852	      0.00000000	     -0.23925321	      0.00000000	      1.02859132	      0.00000000	     -0.00007079	      0.00036321	      0.00002060	      0.28239946	      0.00000000	     -0.34225758	      0.00000000	     -0.00001560	      0.00000000
      2.02000000	      7.52383429	    314.30709779	      7.50142599	     -0.11747917	      0.00000000	     -0.23973263	      0.00000000	      0.82224042	      0.00000000	     -0.00030638	      0.00161851	      0.00009111	      0.28239946	      0.00000000	     -0.34225766	      0.00000000	     -0.00006760	      0.00000000
      2.03000000	     10.55436462	    313.91675426	      6.56400512	     -0.11687522	      0.00000000	     -0.24021199	      0.00000000	      0.61674223	      0.00000000	     -0.00120328	      0.00655556	      0.00036649	      0.28239947	      0.00000000	     -0.34225794	      0.00000000	     -0.00026584	      0.00000000
      2.04000000	     13.75234392	    314.69331774	      5.61966849	     -0.11629412	      0.00000000	     -0.24069668	      0.00000000	      0.41350546	      0.00000000	     -0.00429034	      0.02414643	      0.00134106	      0.28239951	      0.00000000	     -0.34225894	      0.00000000	     -0.00094919	      0.00000000
      2.05000000	     17.12776062	    316.50605525	      4.66134272	     -0.11572733	      0.00000000	     -0.24119671	      0.00000000	      0.21471599	      0.00000000	     -0.01389623	      0.08092711	      0.00446614	      0.28239968	      0.00000000	     -0.34226204	      0.00000000	     -0.00307888	      0.00000000
      2.06000000	     20.69033474	    319.16027105	      3.69140160	     -0.11516134	      0.00000000	     -0.24172277	      0.00000000	      0.02228466	      0.00000000	     -0.04091875	      0.24696231	      0.01354278	      0.28240030	      0.00000000	     -0.34227079	      0.00000000	     -0.00907966	      0.00000000
      2.07000000	     24.44624645	    322.39534219	      2.72079885	     -0.11458114	      0.00000000	     -0.24228121	      0.00000000	     -0.16322011	      0.00000000	     -0.10965377	      0.68678903	      0.03740904	      0.28240232	      0.00000000	     -0.34229316	      0.00000000	     -0.02436781	      0.00000000
      2.08000000	     28.39247944	    325.88728523	      1.76627132	     -0.11397337	      0.00000000	     -0.24287054	      0.00000000	     -0.34279524	      0.00000000	     -0.26780057	      1.74226429	      0.09417641	      0.28240830	      0.00000000	     -0.34234495	      0.00000000	     -0.05959554	      0.00000000
      2.09000000	     32.51013897	    329.25213243	      0.84664167	     -0.11332739	      0.00000000	     -0.24348149	      0.00000000	     -0.51808320	      0.00000000	     -0.59718809	      4.03692655	      0.21617293	      0.28242428	      0.00000000	     -0.34245369	      0.00000000	     -0.13305827	      0.00000000
      2.10000000	     36.75798581	    332.04717218	     -0.02068629	     -0.11263439	      0.00000000	     -0.24410067	      0.00000000	     -0.68977492	      0.00000000	     -1.21909593	      8.55699686	      0.45261934	      0.28246310	      0.00000000	     -0.34266087	      0.00000000	     -0.27186610	      0.00000000
      2.11000000	     41.06664613	    333.76919831	     -0.82209515	     -0.11188645	      0.00000000	     -0.24471616	      0.00000000	     -0.85620218	      0.00000000	     -2.28608550	     16.62635467	      0.86473306	      0.28254905	      0.00000000	     -0.34301960	      0.00000000	     -0.51000424	      0.00000000
      2.12000000	     45.33317361	    333.85131018	     -1.54855559	     -0.11107692	      0.00000000	     -0.24532205	      0.00000000	     -1.01278514	      0.00000000	     -3.95609694	     29.68871096	      1.50776077	      0.28272337	      0.00000000	     -0.34358530	      0.00000000	     -0.88225099	      0.00000000
      2.13000000	     49.41568018	    331.66317502	     -2.19508494	     -0.11020187	      0.00000000	     -0.24591982	      0.00000000	     -1.15244947	      0.00000000	     -6.35533596	     48.88028914	      2.39920585	      0.28304872	      0.00000000	     -0.34440035	      0.00000000	     -1.41540837	      0.00000000
      2.14000000	     53.12880344	    326.52440962	     -2.75940556	     -0.10926144	      0.00000000	     -0.24651667	      0.00000000	     -1.26668302	      0.00000000	     -9.54781570	     74.51753347	      3.48258527	      0.28361029	      0.00000000	     -0.34547817	      0.00000000	     -2.12104692	      0.00000000
      2.15000000	     56.24224713	    317.74428966	     -3.24013854	     -0.10826054	      0.00000000	     -0.24712281	      0.00000000	     -1.34681534	      0.00000000	    -13.52950027	    105.75473109	      4.60638499	      0.28451109	      0.00000000	     -0.34679442	      0.00000000	     -2.99422894	      0.00000000
      2.16000000	     58.48582603	    304.69849504	     -3.63447194	     -0.10720892	      0.00000000	     -0.24775051	      0.00000000	     -1.38527528	      0.00000000	    -18.24780501	    140.66109607	      5.53920199	      0.28586024	      0.00000000	     -0.34829056	      0.00000000	     -4.01885311	      0.00000000
      2.17000000	     59.56525599	    286.94260799	     -3.93530272	     -0.10612146	      0.00000000	     -0.24841555	      0.00000000	     -1.37676142	      0.00000000	    -23.62360057	    176.76953285	      6.02787271	      0.28775458	      0.00000000	     -0.34988756	      0.00000000	     -5.17456232	      0.00000000
